<svg width="200" height="200" viewBox="0 0 200 200" fill="none" xmlns="http://www.w3.org/2000/svg">
<circle cx="100" cy="100" r="100" fill="#1A0D42"/>
<path fill-rule="evenodd" clip-rule="evenodd" d="M45.4648 54C40.2364 54 36 58.1718 36 63.3203V132.693C36 137.841 40.2364 142.013 45.4648 142.013H117.165C115.302 139.033 113.888 135.743 113.017 132.238H90.5776V122.459H112.05C112.204 119.046 112.861 115.763 113.948 112.684H90.6722V102.879H100.603V102.909H115.341V109.328C118.767 102.183 124.616 96.4201 131.823 93.1041H115.371V63.7751H140.188V73.5502H125.298V83.3253H150.118V90.252C153.609 90.6712 156.936 91.619 160.019 93.0131V63.3203C160.019 58.1718 155.782 54 150.554 54H45.4648ZM80.6472 132.238H45.9001V122.459H70.7205V112.684H55.8306V102.909H80.6472V132.238ZM80.6774 63.7751H95.416V63.7453H105.346V73.5502H80.6774V63.7751ZM45.9304 63.7751H70.5994V73.5502H55.8571V83.3253H105.441V93.1041H45.9304V63.7751ZM166.246 125.663C167.968 123.899 169.06 121.715 169.522 119.111C169.648 118.355 169.711 117.62 169.711 116.906C169.711 113.924 168.598 111.635 166.372 110.039C164.146 108.401 161.017 107.582 156.985 107.582H135.691L127.816 151.997H149.803C154.549 151.997 158.413 150.926 161.395 148.784C164.377 146.642 166.183 143.681 166.813 139.901C166.939 139.187 167.002 138.494 167.002 137.822C167.002 135.68 166.393 133.832 165.175 132.278C163.999 130.724 162.34 129.695 160.198 129.191C162.55 128.561 164.566 127.385 166.246 125.663ZM156.544 120.434C156.544 120.854 156.523 121.169 156.481 121.379C156.019 123.983 154.255 125.285 151.189 125.285H144.952L146.338 117.41H152.575C155.221 117.41 156.544 118.418 156.544 120.434ZM154.591 137.255C154.591 137.633 154.57 137.927 154.528 138.137C154.024 140.783 152.239 142.106 149.173 142.106H141.991L143.377 133.979H150.496C151.84 133.979 152.848 134.273 153.52 134.861C154.234 135.407 154.591 136.205 154.591 137.255Z" fill="url(#paint0_linear_2692_515)"/>
<defs>
<linearGradient id="paint0_linear_2692_515" x1="102.856" y1="54" x2="102.856" y2="151.997" gradientUnits="userSpaceOnUse">
<stop stop-color="#FFD100"/>
<stop offset="1" stop-color="#F89542"/>
</linearGradient>
</defs>
</svg>
